<?xml version="1.0" standalone="no"?>
<!DOCTYPE svg PUBLIC "-//W3C//DTD SVG 20010904//EN"
 "http://www.w3.org/TR/2001/REC-SVG-20010904/DTD/svg10.dtd">
<svg version="1.0" xmlns="http://www.w3.org/2000/svg"
 width="1024.000000pt" height="1024.000000pt" viewBox="0 0 1024.000000 1024.000000"
 preserveAspectRatio="xMidYMid meet">

<g transform="translate(0.000000,1024.000000) scale(0.100000,-0.100000)"
fill="#000000" stroke="none">
<path d="M6019 9048 c-10 -4 -19 -16 -19 -27 0 -30 -92 -343 -178 -606 l-78
-240 -187 -5 c-120 -3 -190 -9 -197 -16 -23 -23 -80 -235 -80 -295 0 -33 -4
-59 -9 -59 -5 0 -22 13 -37 29 -16 15 -34 30 -41 32 -6 2 -45 49 -87 104 -71
95 -209 273 -545 700 -82 105 -178 228 -213 275 -35 46 -74 91 -88 98 -36 19
-1895 7 -1925 -13 -15 -9 -35 -57 -69 -166 -26 -85 -78 -251 -116 -369 -38
-118 -110 -345 -160 -505 -221 -700 -289 -913 -407 -1275 -69 -212 -151 -461
-184 -555 -32 -93 -88 -262 -123 -375 -98 -313 -129 -407 -351 -1075 -114
-341 -209 -644 -212 -673 l-6 -53 139 -137 c163 -160 659 -680 733 -767 28
-33 51 -67 51 -75 0 -22 -158 -657 -219 -879 l-50 -184 34 -51 c19 -28 99
-119 177 -201 167 -175 346 -380 450 -515 51 -65 86 -101 113 -114 37 -18 78
-20 575 -29 363 -6 638 -5 855 2 176 6 379 11 450 11 164 0 187 11 205 92 10
49 145 719 292 1448 36 179 59 316 55 330 -4 14 -56 90 -117 170 -174 228
-250 336 -334 470 -44 69 -98 152 -121 185 -49 71 -53 37 39 345 37 124 71
236 75 249 7 23 9 21 51 -30 25 -30 84 -99 131 -154 47 -55 204 -246 348 -425
371 -460 335 -420 384 -420 23 0 52 -3 63 -6 21 -5 21 -7 7 -52 -16 -56 -109
-503 -157 -762 -112 -598 -109 -539 -35 -626 24 -28 85 -104 134 -169 50 -65
144 -186 210 -268 66 -83 159 -201 208 -263 73 -95 93 -115 125 -123 42 -12
362 -18 1612 -31 481 -5 895 -6 919 -2 30 5 50 15 62 32 25 33 101 369 229
1010 64 323 104 507 141 663 17 70 29 134 26 141 -3 8 -39 61 -80 118 -105
147 -421 601 -426 611 -1 4 4 16 13 25 15 17 79 232 166 552 22 85 63 236 90
335 118 435 189 704 200 760 7 33 46 186 87 340 41 154 103 390 138 525 34
135 88 340 119 455 30 116 65 246 76 290 12 44 36 130 55 192 28 96 31 115 20
135 -63 115 -360 681 -478 908 -285 551 -482 919 -505 942 -16 16 -86 18
-1010 20 -546 2 -1002 0 -1013 -4z m1166 -332 c275 2 542 7 593 10 50 3 92 3
92 1 0 -3 -5 -18 -11 -34 -6 -15 -44 -140 -84 -278 -40 -137 -99 -335 -129
-438 -31 -104 -90 -315 -131 -469 -42 -155 -80 -290 -86 -300 -9 -17 -27 -18
-253 -18 l-243 0 103 413 c129 517 125 489 84 527 l-32 30 -510 0 c-404 0
-509 3 -505 13 3 6 42 122 87 257 44 135 85 256 90 270 l10 25 213 -7 c116 -4
437 -5 712 -2z m-3120 -33 c-5 -10 -47 -129 -95 -266 -48 -136 -89 -249 -91
-251 -2 -2 -329 -7 -726 -11 -605 -6 -723 -5 -723 6 0 8 39 131 87 274 l86
260 735 3 c703 3 734 2 727 -15z m291 -845 c-7 -24 -20 -63 -29 -88 -8 -25
-43 -137 -77 -250 -34 -113 -84 -276 -111 -363 -27 -87 -49 -164 -49 -172 0
-7 12 -16 28 -19 15 -4 736 -8 1602 -11 866 -2 1591 -4 1611 -5 l36 0 -38
-147 c-34 -129 -214 -832 -440 -1723 -69 -269 -158 -617 -225 -874 -18 -71
-35 -131 -38 -133 -6 -6 -850 -10 -1238 -6 -330 3 -338 4 -338 24 0 11 29 138
66 282 90 361 183 713 374 1415 99 363 110 410 96 421 -9 8 -557 -15 -592 -24
-6 -2 -67 -171 -134 -377 -67 -205 -134 -407 -148 -450 l-26 -76 -71 -6 c-118
-11 -598 -26 -814 -26 -184 0 -203 2 -197 16 4 9 31 98 62 198 31 99 91 296
135 436 44 140 77 264 75 276 -5 20 -9 20 -263 16 -142 -2 -260 -7 -263 -11
-3 -3 -19 -58 -34 -121 -27 -106 -70 -255 -163 -561 l-36 -117 -311 -7 c-317
-7 -660 -4 -670 5 -3 3 12 66 33 140 21 74 53 187 70 250 18 63 53 188 79 278
l46 163 -19 35 -18 34 -116 0 c-110 0 -413 11 -418 15 -4 2 333 1030 435 1330
l89 260 859 5 c472 3 934 6 1026 8 l167 2 -13 -42z m2444 16 c0 -11 -109 -436
-143 -555 l-32 -117 -605 -3 c-533 -4 -605 -2 -604 11 1 8 20 74 41 145 22 72
64 219 94 328 l54 197 597 0 c329 0 598 -3 598 -6z m-4759 -1894 c-18 -70
-179 -616 -215 -730 -25 -80 -80 -265 -122 -412 l-76 -267 63 -80 c35 -44 73
-84 84 -88 11 -3 244 -7 518 -7 340 -1 497 -4 497 -11 0 -6 -14 -56 -30 -110
-17 -55 -38 -124 -47 -152 -12 -42 -20 -53 -37 -53 -182 -2 -1166 2 -1181 5
-11 2 -117 4 -236 4 l-215 1 57 168 c66 196 105 306 189 537 109 298 201 566
240 700 22 72 67 217 102 322 l63 193 175 -3 c150 -2 174 -4 171 -17z m998
-846 c2 -2 -12 -54 -32 -116 -32 -102 -50 -166 -101 -349 -14 -51 -19 -57 -47
-63 -17 -3 -245 -6 -506 -6 -447 0 -474 1 -469 18 3 9 19 60 35 112 26 85 111
341 132 397 l8 21 488 -5 c268 -3 490 -7 492 -9z m285 -1313 l280 -6 69 -95
c120 -165 121 -168 91 -285 -15 -55 -21 -89 -23 -123 -1 -7 -5 -11 -9 -8 -4 2
-6 -11 -4 -30 5 -39 -7 -44 -27 -11 -13 20 -13 21 2 8 11 -8 17 -9 17 -3 0 14
-35 34 -44 25 -3 -3 -6 3 -6 15 0 12 3 21 8 21 25 -4 42 3 41 19 0 10 -3 12
-6 5 -2 -7 -12 -13 -22 -13 -18 0 -84 -81 -96 -119 -6 -18 -9 -21 -16 -10 -7
11 -9 9 -10 -6 0 -11 -3 -14 -6 -7 -2 6 -9 10 -14 6 -14 -8 -11 9 7 34 8 12
10 22 5 22 -13 0 -14 10 -1 30 8 13 13 13 31 2 11 -8 18 -9 14 -3 -3 6 1 11 9
11 9 0 16 4 16 10 0 5 -7 6 -17 3 -10 -4 -14 -2 -9 5 3 6 -4 18 -16 26 l-22
15 24 21 c20 17 20 20 5 20 -12 0 -15 3 -8 13 15 18 23 82 12 98 -5 8 -9 10
-9 5 0 -5 -11 -59 -25 -120 -35 -162 -199 -992 -235 -1194 l-31 -174 58 -76
c32 -43 71 -99 87 -125 15 -27 61 -93 102 -147 41 -54 74 -103 74 -109 0 -5 8
-15 18 -20 9 -6 13 -11 9 -11 -5 0 -5 -6 0 -12 4 -7 8 -19 9 -26 1 -7 11 -25
21 -40 17 -26 28 -72 16 -72 -3 0 -15 12 -27 27 -11 15 -39 48 -61 74 -22 25
-49 57 -60 70 -11 13 -74 89 -140 169 -67 80 -126 156 -133 170 -36 69 -4 64
-410 72 -202 3 -559 8 -794 10 -254 2 -432 8 -437 13 -5 6 1 42 15 90 14 44
23 88 20 98 -2 10 0 14 7 10 6 -4 8 2 5 15 -4 12 -2 22 4 22 6 0 7 7 4 16 -3
8 -3 27 0 41 5 19 9 22 16 11 6 -9 8 -4 7 17 -4 55 0 77 13 69 7 -4 8 -3 4 5
-8 12 27 159 171 736 42 165 97 390 124 500 26 110 48 201 48 203 2 4 976 -1
1255 -7z m3051 -26 c1004 -8 1205 -12 1235 -24 14 -5 18 -10 9 -10 -12 -1 -20
-29 -37 -123 -12 -68 -35 -197 -51 -288 -16 -91 -41 -217 -56 -280 -42 -186
-110 -534 -170 -865 -8 -44 -17 -91 -20 -105 -3 -14 -8 -46 -12 -73 -6 -46 -5
-48 43 -100 28 -28 85 -104 127 -167 111 -165 185 -273 197 -287 5 -7 10 -22
10 -33 0 -12 11 -31 24 -43 18 -17 23 -29 19 -50 -3 -15 -9 -27 -13 -25 -8 3
-75 82 -105 123 -11 16 -65 85 -120 154 -55 70 -129 165 -165 211 -36 47 -78
98 -95 115 l-30 30 -755 0 c-415 -1 -876 -2 -1023 -4 -260 -4 -269 -3 -289 16
l-20 21 36 203 c21 112 71 373 113 579 65 322 76 394 80 511 7 189 -9 320 -54
427 -25 62 -31 87 -23 92 7 4 96 6 199 4 102 -2 528 -6 946 -9z m1299 -61 c5
-14 4 -15 -9 -4 -17 14 -19 20 -6 20 5 0 12 -7 15 -16z m21 -64 c3 -5 2 -10
-4 -10 -5 0 -13 5 -16 10 -3 6 -2 10 4 10 5 0 13 -4 16 -10z m39 -6 c9 -24 7
-44 -5 -44 -5 0 -9 8 -7 18 1 9 -1 23 -5 30 -5 6 -4 12 1 12 6 0 13 -7 16 -16z
m-29 -124 c-3 -5 -12 -10 -18 -10 -7 0 -6 4 3 10 19 12 23 12 15 0z m-85 -12
c0 -4 -4 -8 -9 -8 -6 0 -12 4 -15 8 -3 5 1 9 9 9 8 0 15 -4 15 -9z m118 -22
c-3 -13 -6 -13 -28 0 -24 14 -24 15 -2 11 15 -4 22 0 23 11 0 11 3 12 6 5 2
-7 3 -19 1 -27z m-18 -39 c11 -5 9 -6 -4 -4 -11 1 -21 9 -23 17 -3 10 -2 11 4
4 4 -6 15 -14 23 -17z m-65 3 c3 -5 1 -10 -4 -10 -6 0 -11 5 -11 10 0 6 2 10
4 10 3 0 8 -4 11 -10z m25 -61 c0 -6 -4 -7 -10 -4 -5 3 -10 11 -10 16 0 6 5 7
10 4 6 -3 10 -11 10 -16z m47 -21 c-3 -8 -6 -5 -6 6 -1 11 2 17 5 13 3 -3 4
-12 1 -19z m-4127 -62 c0 -11 -19 -15 -25 -6 -3 5 1 10 9 10 9 0 16 -2 16 -4z
m65 -46 c4 -6 1 -9 -7 -8 -8 2 -12 -5 -10 -18 2 -13 -3 -21 -13 -21 -18 0 -19
11 -3 37 14 22 24 25 33 10z m25 -50 c-13 -8 -12 -11 6 -16 16 -4 20 -12 17
-32 -10 -60 -34 -177 -38 -180 -2 -2 -8 6 -14 17 -9 16 -9 19 2 15 11 -4 13 5
12 41 -2 25 1 48 6 51 5 3 7 10 4 15 -4 5 -2 9 3 9 13 0 9 45 -6 62 -12 15 -7
28 12 28 6 0 4 -5 -4 -10z m-107 -75 c2 -14 -1 -23 -7 -22 -16 3 -25 -76 -11
-107 8 -18 7 -18 -13 0 -12 9 -19 21 -16 26 3 4 -1 8 -8 8 -9 1 -8 4 3 10 9 5
15 21 14 37 -1 15 6 33 14 40 14 11 14 12 -1 13 -10 0 -18 6 -18 14 0 24 38 6
43 -19z m27 31 c0 -3 -4 -8 -10 -11 -5 -3 -10 -1 -10 4 0 6 5 11 10 11 6 0 10
-2 10 -4z m40 0 c0 -3 -4 -8 -10 -11 -5 -3 -10 -1 -10 4 0 6 5 11 10 11 6 0
10 -2 10 -4z m-43 -92 c5 -17 -14 -36 -33 -31 -17 4 -17 6 4 12 23 8 29 20 12
28 -6 3 -5 4 2 3 6 -1 13 -6 15 -12z m-78 -107 c0 -21 -1 -21 -9 -2 -12 28
-12 37 0 30 6 -3 10 -16 9 -28z m131 -47 c0 -5 -4 -10 -10 -10 -5 0 -10 5 -10
10 0 6 5 10 10 10 6 0 10 -4 10 -10z m-140 -54 c0 -6 -10 -22 -21 -36 -15 -18
-19 -20 -15 -7 3 10 6 27 6 36 0 10 7 18 15 18 8 0 15 -5 15 -11z m127 -28
c-3 -8 -6 -5 -6 6 -1 11 2 17 5 13 3 -3 4 -12 1 -19z m-101 -13 c-3 -23 -12
-26 -13 -5 -1 11 2 20 7 20 4 0 7 -7 6 -15z m-26 -26 c0 -11 -4 -17 -10 -14
-6 4 -17 1 -25 -5 -12 -10 -15 -9 -15 4 0 9 8 16 20 16 11 0 20 5 20 10 0 6 2
10 5 10 3 0 5 -9 5 -21z m97 -91 c-15 -62 -15 -62 -11 -13 3 28 5 61 6 74 0
15 3 20 10 13 7 -7 5 -31 -5 -74z m-115 34 c-15 -2 -22 -9 -18 -17 7 -18 -10
-29 -20 -14 -9 16 34 51 50 41 7 -4 2 -8 -12 -10z m90 -152 c-4 -28 -22 -53
-22 -31 0 12 18 61 23 61 2 0 2 -14 -1 -30z m-25 -112 c-3 -7 -5 -2 -5 12 0
14 2 19 5 13 2 -7 2 -19 0 -25z m-74 -303 c-3 -9 -8 -14 -10 -11 -3 3 -2 9 2
15 9 16 15 13 8 -4z m4247 -875 c0 -5 -5 -10 -11 -10 -5 0 -7 5 -4 10 3 6 8
10 11 10 2 0 4 -4 4 -10z"/>
<path d="M3605 3560 c-4 -17 -5 -34 -2 -36 2 -3 7 10 11 27 8 42 0 50 -9 9z"/>
<path d="M3720 3580 c0 -5 5 -10 10 -10 6 0 10 5 10 10 0 6 -4 10 -10 10 -5 0
-10 -4 -10 -10z"/>
<path d="M3650 3549 c0 -5 5 -7 10 -4 6 3 10 8 10 11 0 2 -4 4 -10 4 -5 0 -10
-5 -10 -11z"/>
<path d="M3715 3550 c4 -6 11 -8 16 -5 14 9 11 15 -7 15 -8 0 -12 -5 -9 -10z"/>
<path d="M2538 3530 c-79 -10 -157 -48 -198 -99 -46 -56 -102 -175 -108 -229
-7 -75 6 -83 126 -76 162 9 158 7 189 72 l28 57 173 3 c159 2 172 1 172 -15 0
-25 -49 -175 -62 -190 -7 -9 -43 -13 -119 -13 -59 0 -110 -4 -114 -9 -3 -5
-16 -59 -30 -119 -14 -60 -27 -117 -31 -125 -5 -13 11 -16 110 -19 151 -4 153
-6 126 -113 -32 -127 -36 -133 -84 -140 -22 -3 -97 -6 -166 -8 l-125 -2 1 30
c1 17 5 46 8 65 6 28 3 40 -16 61 -23 25 -23 25 -160 21 l-138 -4 -11 -41 c-7
-23 -12 -81 -13 -128 0 -77 3 -93 32 -151 17 -35 39 -72 49 -81 31 -27 172
-39 433 -35 l245 3 70 47 c39 26 85 67 103 92 37 52 79 156 93 234 16 83 -12
193 -63 248 -19 22 -19 22 10 50 100 98 165 228 164 330 -1 98 -72 218 -154
260 -50 26 -391 41 -540 24z"/>
<path d="M3685 3400 c-3 -5 -1 -10 4 -10 6 0 11 5 11 10 0 6 -2 10 -4 10 -3 0
-8 -4 -11 -10z"/>
<path d="M3710 3381 c0 -5 -12 -12 -27 -16 -21 -5 -24 -8 -13 -15 9 -6 17 -5
22 3 4 7 8 8 8 3 0 -11 30 14 30 25 0 5 -4 9 -10 9 -5 0 -10 -4 -10 -9z"/>
<path d="M3614 3329 c-4 -7 -3 -9 4 -5 5 3 12 0 15 -6 2 -7 7 -10 11 -7 4 3 0
12 -8 18 -11 9 -16 9 -22 0z"/>
<path d="M6975 3440 c-25 -50 -65 -142 -89 -203 -43 -110 -195 -468 -202 -476
-9 -9 -13 12 -44 194 -63 382 -88 480 -138 542 -16 20 -23 21 -135 16 l-118
-6 -19 -36 c-10 -20 -26 -63 -35 -96 -60 -205 -230 -626 -245 -608 -4 5 -15
46 -25 93 -40 196 -125 542 -141 572 -21 43 -54 78 -71 78 -16 0 -139 -40
-195 -64 l-36 -16 28 -95 c16 -52 41 -148 55 -212 15 -65 37 -161 50 -213 22
-88 56 -243 91 -415 41 -200 56 -254 71 -259 24 -10 294 -9 304 1 4 4 44 94
87 198 176 421 185 440 193 419 5 -10 18 -75 29 -144 11 -69 34 -179 50 -245
16 -66 35 -147 42 -180 l13 -60 161 -3 c124 -2 163 1 167 10 2 7 53 139 112
293 58 154 136 352 172 440 36 88 83 203 104 257 21 53 49 119 63 147 31 61
31 65 6 101 -21 29 -64 41 -197 55 l-62 7 -46 -92z"/>
</g>
</svg>
